<svg width="146" height="152" viewBox="0 0 146 152" fill="none" xmlns="http://www.w3.org/2000/svg">
<g clip-path="url(#clip0_1_140994)">
<path d="M9.59501 77.73C4.04001 77.73 0.355011 81.139 0.355011 86.318V101.534C0.355011 106.713 4.04001 110.121 9.59501 110.121C15.15 110.121 18.747 106.713 18.747 101.534V99.055H15.903V101.434C15.903 105.075 13.38 107.454 9.59501 107.454C5.81001 107.454 3.24301 105.075 3.24301 101.434V86.395C3.24301 82.754 5.76601 80.375 9.59501 80.375C13.424 80.375 15.903 82.754 15.903 86.395V88.774H18.747V86.295C18.747 81.116 15.106 77.708 9.59501 77.708V77.73Z" fill="#0D6EFD"/>
<path d="M31.828 77.73C26.184 77.73 22.399 81.23 22.399 86.55V101.301C22.399 106.624 26.184 110.121 31.828 110.121C37.472 110.121 41.168 106.621 41.168 101.301V86.55C41.168 81.227 37.483 77.73 31.828 77.73ZM38.313 101.213C38.313 104.998 35.701 107.465 31.828 107.465C27.955 107.465 25.288 104.986 25.288 101.213V86.649C25.288 82.864 27.855 80.397 31.828 80.397C35.801 80.397 38.313 82.876 38.313 86.649V101.213Z" fill="#0D6EFD"/>
<path d="M61.186 102.607L61.374 104.577H61.097L49.511 78.283H45.97V109.568H48.814V85.243L48.626 83.284H48.914L60.489 109.567H64.041V78.283H61.186V102.607Z" fill="#0D6EFD"/>
<path d="M85.378 78.283H67.727V80.95H75.153V109.568H77.997V80.95H85.378V78.283Z" fill="#0D6EFD"/>
<path d="M93.445 78.283L84.945 109.568H88.021L90.168 101.068H100.583L102.774 109.568H105.994L97.451 78.283H93.445ZM90.878 98.457L95.271 81.143H95.506L99.944 98.462L90.878 98.457Z" fill="#0D6EFD"/>
<path d="M117.215 77.73C111.66 77.73 107.975 81.138 107.975 86.317V101.534C107.975 106.713 111.66 110.121 117.215 110.121C122.77 110.121 126.367 106.713 126.367 101.534V99.055H123.525V101.434C123.525 105.075 121.002 107.454 117.217 107.454C113.432 107.454 110.865 105.075 110.865 101.434V86.395C110.865 82.754 113.388 80.375 117.217 80.375C121.046 80.375 123.525 82.754 123.525 86.395V88.774H126.369V86.295C126.369 81.116 122.728 77.708 117.217 77.708V77.73H117.215Z" fill="#0D6EFD"/>
<path d="M127.994 80.95H135.42V109.568H138.264V80.95H145.645V78.283H127.994V80.95Z" fill="#0D6EFD"/>
<path d="M43.494 134.789V134.413C45.973 133.849 47.743 131.193 47.743 127.364C47.743 122.506 44.523 119.241 39.62 119.241H28.784V150.526H40.359C45.259 150.526 48.482 147.162 48.482 142.359C48.482 138.298 46.523 135.454 43.491 134.801L43.494 134.789ZM35.183 124.789H37.794C38.2805 124.775 38.7646 124.863 39.2146 125.049C39.6646 125.234 40.0704 125.512 40.4056 125.865C40.7408 126.218 40.9978 126.638 41.1598 127.097C41.3218 127.556 41.3853 128.044 41.346 128.529C41.3837 129.009 41.3184 129.492 41.1545 129.945C40.9906 130.397 40.7318 130.81 40.3955 131.155C40.0592 131.5 39.6531 131.768 39.2045 131.944C38.7558 132.119 38.2749 132.196 37.794 132.17H35.18L35.183 124.789ZM38.547 144.963H35.18V137.263H38.544C40.691 137.263 42.096 138.801 42.096 141.092C42.096 143.383 40.694 144.957 38.545 144.957L38.547 144.963Z" fill="#0D6EFD"/>
<path d="M60.257 118.675C54.049 118.675 49.943 122.504 49.943 128.292V141.461C49.943 147.249 54.049 151.078 60.257 151.078C66.465 151.078 70.571 147.249 70.571 141.461V128.292C70.571 122.504 66.509 118.675 60.257 118.675ZM64.174 141.317C64.1259 142.318 63.6944 143.262 62.9692 143.953C62.2439 144.644 61.2804 145.03 60.2785 145.03C59.2766 145.03 58.3131 144.644 57.5878 143.953C56.8625 143.262 56.4311 142.318 56.383 141.317V128.435C56.4311 127.434 56.8625 126.49 57.5878 125.799C58.3131 125.108 59.2766 124.722 60.2785 124.722C61.2804 124.722 62.2439 125.108 62.9692 125.799C63.6944 126.49 64.1259 127.434 64.174 128.435V141.317Z" fill="#0D6EFD"/>
<path d="M83.175 118.675C76.967 118.675 72.861 122.504 72.861 128.292V141.461C72.861 147.249 76.967 151.078 83.175 151.078C89.383 151.078 93.489 147.249 93.489 141.461V128.292C93.489 122.504 89.427 118.675 83.175 118.675ZM87.092 141.317C87.0439 142.318 86.6125 143.262 85.8872 143.953C85.1619 144.644 84.1984 145.03 83.1965 145.03C82.1946 145.03 81.2311 144.644 80.5058 143.953C79.7805 143.262 79.3491 142.318 79.301 141.317V128.435C79.3491 127.434 79.7805 126.49 80.5058 125.799C81.2311 125.108 82.1946 124.722 83.1965 124.722C84.1984 124.722 85.1619 125.108 85.8872 125.799C86.6125 126.49 87.0439 127.434 87.092 128.435V141.317Z" fill="#0D6EFD"/>
<path d="M109.226 132.917L117.072 119.239H109.746L103.346 132.308H102.97V119.239H96.57V150.512H102.97V140.663L104.929 138.563L109.643 150.515H117.212L109.226 132.917Z" fill="#0D6EFD"/>
<path d="M95.691 7.71299C95.8901 7.71299 96.0872 7.67378 96.2711 7.59759C96.4551 7.5214 96.6222 7.40974 96.763 7.26896C96.9038 7.12819 97.0154 6.96107 97.0916 6.77714C97.1678 6.59321 97.207 6.39607 97.207 6.19699C97.207 5.99791 97.1678 5.80077 97.0916 5.61684C97.0154 5.43291 96.9038 5.26579 96.763 5.12502C96.6222 4.98424 96.4551 4.87257 96.2711 4.79639C96.0872 4.7202 95.8901 4.68099 95.691 4.68099H67.306V1.51599C67.3059 1.45994 67.2985 1.40413 67.284 1.34999C67.2866 1.28925 67.2753 1.22871 67.251 1.17299L67.218 1.07299C67.218 1.07299 67.185 0.961989 67.163 0.906989L67.021 0.652989C67.021 0.652989 66.952 0.574989 66.908 0.519989L66.821 0.431989C66.821 0.431989 66.755 0.376989 66.699 0.331989C66.6603 0.299704 66.6196 0.269974 66.577 0.242989L66.454 0.176989C66.454 0.176989 66.354 0.132989 66.31 0.110989C66.266 0.110989 66.233 0.0779891 66.155 0.0559891C66.1094 0.0486808 66.0646 0.0373019 66.021 0.0219891L65.721 -1.08556e-05H65.555C65.4978 -0.00232055 65.4409 0.00899028 65.389 0.0329891L61.629 0.973989L57.878 0.0659891C57.8198 0.0533558 57.7605 0.0459927 57.701 0.0439891H57.435C57.3789 0.0435271 57.323 0.0509325 57.269 0.0659891C57.219 0.0742734 57.1696 0.0856282 57.121 0.0999891C57.0752 0.109617 57.0305 0.124377 56.988 0.143989L56.722 0.276989C56.722 0.276989 56.645 0.331989 56.6 0.365989L56.5 0.454989C56.5 0.454989 56.445 0.509989 56.389 0.576989C56.3567 0.611756 56.3269 0.648856 56.3 0.687989L56.156 0.942989C56.1336 0.99311 56.1152 1.04494 56.101 1.09799L56.057 1.23099C56.0423 1.29295 56.0313 1.35572 56.024 1.41899V4.83599C53.9963 5.18971 52.1581 6.24679 50.8325 7.82147C49.5069 9.39614 48.7788 11.3876 48.776 13.446V41.3C48.757 44.492 49.3695 47.6563 50.5782 50.6107C51.7869 53.5651 53.568 56.2513 55.8189 58.5147C58.0698 60.778 60.7462 62.5739 63.6939 63.7988C66.6416 65.0238 69.8025 65.6536 72.9946 65.6522C76.1867 65.6507 79.347 65.018 82.2936 63.7904C85.2402 62.5627 87.9149 60.7645 90.1637 58.4991C92.4126 56.2337 94.1913 53.5459 95.3973 50.5904C96.6033 47.6349 97.2129 44.47 97.191 41.278V20.639C97.1918 20.4392 97.1532 20.2411 97.0774 20.0562C97.0017 19.8713 96.8902 19.7032 96.7494 19.5614C96.6086 19.4196 96.4413 19.3069 96.2569 19.2298C96.0726 19.1527 95.8748 19.1126 95.675 19.112H95.133V7.71299H95.675H95.691ZM67.306 7.71299H92.106V11.885H67.306V7.71299ZM59.072 3.48499L61.307 4.04899L61.429 3.57299L61.462 4.07299C61.6088 4.09518 61.7582 4.09518 61.905 4.07299L64.284 3.48599V11.886H59.073V3.49999L59.072 3.48499ZM56.029 7.91299V11.886H55.985C55.5829 11.886 55.1973 12.0457 54.913 12.33C54.6287 12.6143 54.469 12.9999 54.469 13.402C54.469 13.8041 54.6287 14.1897 54.913 14.474C55.1973 14.7583 55.5829 14.918 55.985 14.918H92.128V19.09H57.546C56.1048 19.0907 54.7168 18.5454 53.6614 17.5639C52.606 16.5824 51.9617 15.2375 51.858 13.8V13.291C51.8801 12.0597 52.3008 10.8688 53.0569 9.89681C53.8131 8.92484 54.864 8.2242 56.052 7.89999L56.029 7.91299ZM73.021 62.425C67.4064 62.4186 62.0238 60.1847 58.0547 56.2135C54.0856 52.2424 51.8544 46.8586 51.851 41.244V20.044C53.4334 21.4059 55.4513 22.1559 57.539 22.158H94.186V41.266C94.1781 46.8763 91.9454 52.2545 87.9778 56.221C84.0101 60.1875 78.6313 62.4186 73.021 62.425Z" fill="#0D6EFD"/>
<path d="M85.389 31.484H78.174C77.3077 31.4855 76.471 31.8 75.8183 32.3697C75.1655 32.9394 74.7407 33.7258 74.622 34.584H71.412C71.2934 33.7258 70.8685 32.9394 70.2158 32.3697C69.563 31.8 68.7264 31.4855 67.86 31.484H60.644C59.6932 31.484 58.7814 31.8617 58.109 32.534C57.4367 33.2063 57.059 34.1182 57.059 35.069V38.169C57.059 39.1198 57.4367 40.0316 58.109 40.704C58.7814 41.3763 59.6932 41.754 60.644 41.754H67.859C68.8098 41.754 69.7217 41.3763 70.394 40.704C71.0663 40.0316 71.444 39.1198 71.444 38.169V37.627H74.587V38.169C74.587 39.1198 74.9647 40.0316 75.637 40.704C76.3094 41.3763 77.2212 41.754 78.172 41.754H85.389C86.3398 41.754 87.2517 41.3763 87.924 40.704C88.5963 40.0316 88.974 39.1198 88.974 38.169V35.069C88.974 34.1182 88.5963 33.2063 87.924 32.534C87.2517 31.8617 86.3398 31.484 85.389 31.484ZM68.402 38.157C68.4018 38.3006 68.3446 38.4383 68.243 38.5399C68.1414 38.6415 68.0037 38.6987 67.86 38.699H60.644C60.5004 38.6987 60.3626 38.6415 60.2611 38.5399C60.1595 38.4383 60.1023 38.3006 60.102 38.157V35.057C60.1023 34.9133 60.1595 34.7756 60.2611 34.674C60.3626 34.5724 60.5004 34.5152 60.644 34.515H67.859C68.0027 34.5152 68.1404 34.5724 68.242 34.674C68.3436 34.7756 68.4008 34.9133 68.401 35.057L68.402 38.157ZM85.931 38.157C85.9308 38.3006 85.8736 38.4383 85.772 38.5399C85.6704 38.6415 85.5327 38.6987 85.389 38.699H78.174C78.0304 38.6987 77.8926 38.6415 77.7911 38.5399C77.6895 38.4383 77.6323 38.3006 77.632 38.157V35.057C77.6323 34.9133 77.6895 34.7756 77.7911 34.674C77.8926 34.5724 78.0304 34.5152 78.174 34.515H85.389C85.5327 34.5152 85.6704 34.5724 85.772 34.674C85.8736 34.7756 85.9308 34.9133 85.931 35.057V38.157Z" fill="#0D6EFD"/>
<path d="M78.162 49.013C77.7601 49.0135 77.3748 49.1734 77.0906 49.4576C76.8064 49.7418 76.6465 50.1271 76.646 50.529C76.6457 50.6727 76.5885 50.8104 76.4869 50.912C76.3854 51.0135 76.2477 51.0707 76.104 51.071H69.913C69.7693 51.0707 69.6316 51.0135 69.53 50.912C69.4284 50.8104 69.3713 50.6727 69.371 50.529C69.371 50.3299 69.3318 50.1328 69.2556 49.9489C69.1794 49.7649 69.0677 49.5978 68.927 49.457C68.7862 49.3163 68.6191 49.2046 68.4351 49.1284C68.2512 49.0522 68.0541 49.013 67.855 49.013C67.6559 49.013 67.4588 49.0522 67.2748 49.1284C67.0909 49.2046 66.9238 49.3163 66.783 49.457C66.6422 49.5978 66.5306 49.7649 66.4544 49.9489C66.3782 50.1328 66.339 50.3299 66.339 50.529C66.339 51.4798 66.7167 52.3917 67.389 53.064C68.0613 53.7363 68.9732 54.114 69.924 54.114H76.113C77.0638 54.114 77.9756 53.7363 78.648 53.064C79.3203 52.3917 79.698 51.4798 79.698 50.529C79.6975 50.1271 79.5376 49.7418 79.2534 49.4576C78.9692 49.1734 78.5839 49.0135 78.182 49.013H78.162Z" fill="#0D6EFD"/>
</g>
<defs>
<clipPath id="clip0_1_140994">
<rect width="145.29" height="151.078" fill="white" transform="translate(0.355011)"/>
</clipPath>
</defs>
</svg>
